HIERARCHY
ROOT joint_Root
{
	OFFSET 0.0 0.0 0.0
	CHANNELS 6 Xposition Yposition Zposition Zrotation Xrotation Yrotation 
	JOINT Hips
	{
		OFFSET 4.5925 91.4895 -427.239
		CHANNELS 6 Xposition Yposition Zposition Zrotation Xrotation Yrotation 
		JOINT Spine
		{
			OFFSET 15.7357 0.0 0.0
			CHANNELS 6 Xposition Yposition Zposition Zrotation Xrotation Yrotation 
			JOINT Chest
			{
				OFFSET 8.98455 -0.406207 0.0
				CHANNELS 6 Xposition Yposition Zposition Zrotation Xrotation Yrotation 
				JOINT Neck
				{
					OFFSET 16.3773 0.0 0.0
					CHANNELS 6 Xposition Yposition Zposition Zrotation Xrotation Yrotation 
					JOINT Head
					{
						OFFSET 6.45672 0.0 0.0
						CHANNELS 6 Xposition Yposition Zposition Zrotation Xrotation Yrotation 
						End Site
						{
							OFFSET 0.0 0.0 0.0
						}
					}
				}
				JOINT Shoulder_L
				{
					OFFSET 12.9942 -0.242716 4.98039
					CHANNELS 6 Xposition Yposition Zposition Zrotation Xrotation Yrotation 
					JOINT UpperArm_L
					{
						OFFSET 5.34809 0.0 0.0
						CHANNELS 6 Xposition Yposition Zposition Zrotation Xrotation Yrotation 
						JOINT LowerArm_L
						{
							OFFSET 24.3286 1.87007e-05 0.0
							CHANNELS 6 Xposition Yposition Zposition Zrotation Xrotation Yrotation 
							JOINT Hand_L
							{
								OFFSET 22.2916 0.0 0.0
								CHANNELS 6 Xposition Yposition Zposition Zrotation Xrotation Yrotation 
								End Site
								{
									OFFSET 0.0 0.0 0.0
								}
							}
						}
					}
				}
				JOINT Shoulder_R
				{
					OFFSET 12.9945 -0.242716 -4.98039
					CHANNELS 6 Xposition Yposition Zposition Zrotation Xrotation Yrotation 
					JOINT UpperArm_R
					{
						OFFSET -5.34813 0.0 0.0
						CHANNELS 6 Xposition Yposition Zposition Zrotation Xrotation Yrotation 
						JOINT LowerArm_R
						{
							OFFSET -24.3289 0.000322201 0.0
							CHANNELS 6 Xposition Yposition Zposition Zrotation Xrotation Yrotation 
							JOINT Hand_R
							{
								OFFSET -22.2915 -0.000108084 0.0
								CHANNELS 6 Xposition Yposition Zposition Zrotation Xrotation Yrotation 
								End Site
								{
									OFFSET 0.0 0.0 0.0
								}
							}
						}
					}
				}
			}
		}
		JOINT UpperLeg_L
		{
			OFFSET -2.19248 -6.46944 0.0
			CHANNELS 6 Xposition Yposition Zposition Zrotation Xrotation Yrotation 
			JOINT LowerLeg_L
			{
				OFFSET 39.0811 0.0 -1.23785e-05
				CHANNELS 6 Xposition Yposition Zposition Zrotation Xrotation Yrotation 
				JOINT Foot_L
				{
					OFFSET 40.9854 0.0 -1.26872e-05
					CHANNELS 6 Xposition Yposition Zposition Zrotation Xrotation Yrotation 
					JOINT Toes_L
					{
						OFFSET 11.7543 0.0 0.0
						CHANNELS 6 Xposition Yposition Zposition Zrotation Xrotation Yrotation 
						End Site
						{
							OFFSET 0.0 0.0 0.0
						}
					}
				}
			}
		}
		JOINT UpperLeg_R
		{
			OFFSET -2.19251 6.46944 0.0
			CHANNELS 6 Xposition Yposition Zposition Zrotation Xrotation Yrotation 
			JOINT LowerLeg_R
			{
				OFFSET -39.0811 -0.00228153 -0.0401928
				CHANNELS 6 Xposition Yposition Zposition Zrotation Xrotation Yrotation 
				JOINT Foot_R
				{
					OFFSET -40.9854 0.0 0.0
					CHANNELS 6 Xposition Yposition Zposition Zrotation Xrotation Yrotation 
					JOINT Toes_R
					{
						OFFSET -11.7543 0.0 0.0
						CHANNELS 6 Xposition Yposition Zposition Zrotation Xrotation Yrotation 
						End Site
						{
							OFFSET 0.0 0.0 0.0
						}
					}
				}
			}
		}
	}
}
MOTION
Frames:	8
Frame Time:	0.0333333
0.000000 0.000000 0.000000 0.000000 0.000000 -0.000000 0.964898 82.264500 -45.875300 93.469800 -2.560740 -6.662360 15.735700 0.000005 -0.000001 97.760700 81.041400 -100.511000 8.984550 -0.406207 -0.000000 10.056000 2.349150 -5.704030 16.377300 -0.000001 -0.000001 -3.600710 -2.243140 2.223150 6.456720 -0.000001 -0.000000 -4.498380 -4.960520 4.334410 12.994200 -0.242716 4.980390 -92.294500 6.268090 -69.847300 5.348090 -0.000007 -0.000001 -64.383900 0.466102 -5.689570 24.328600 0.000019 0.000005 -4.535840 -2.617730 -60.090000 22.291600 -0.000001 0.000005 13.341600 5.545540 -8.501170 12.994500 -0.242716 -4.980390 88.498500 11.070200 -82.226100 -5.348130 -0.000001 -0.000004 -58.287200 29.702700 -7.521380 -24.328900 0.000322 -0.000009 -7.913720 -10.724200 -36.748000 -22.291500 -0.000108 -0.000004 13.983100 5.504230 -6.704510 -2.192480 -6.469440 -0.000000 169.623000 -2.444840 -39.858000 39.081100 -0.000007 -0.000012 -0.506829 0.288582 60.344500 40.985400 -0.000006 -0.000013 5.764440 -5.493720 -77.807400 11.754300 -0.000000 0.000003 -0.000059 -0.000655 -16.602900 -2.192510 6.469440 -0.000001 170.575000 8.812170 151.681000 -39.081100 -0.002282 -0.040193 0.461287 0.371842 129.082000 -40.985400 0.000008 0.000006 0.448380 -0.817494 -5.330840 -11.754300 -0.000006 -0.000006 -0.015184 -0.138971 -22.243400
0.000000 0.000000 0.000000 0.000000 0.000000 -0.000000 1.247610 81.044200 -34.589700 94.258700 1.362920 -6.259280 15.735700 0.000005 -0.000001 89.656800 80.598500 -92.209000 8.984550 -0.406207 -0.000000 11.037700 -0.184651 -5.084160 16.377300 -0.000001 -0.000001 -4.371320 -3.352830 1.788840 6.456720 -0.000001 -0.000000 -5.187900 -4.749130 4.514090 12.994200 -0.242716 4.980390 -91.312600 4.331810 -73.130600 5.348090 -0.000007 -0.000001 -67.558700 1.245770 -20.691500 24.328600 0.000019 0.000005 -1.885040 -0.772413 -67.738600 22.291600 -0.000001 0.000005 12.114500 5.546460 -8.539840 12.994500 -0.242716 -4.980390 88.393400 10.116000 -80.926800 -5.348130 -0.000001 -0.000004 -63.075100 28.133600 2.421420 -24.328900 0.000322 -0.000009 -1.690110 -3.086320 -28.682900 -22.291500 -0.000108 -0.000004 12.468900 5.484920 -5.939280 -2.192480 -6.469440 -0.000000 169.168000 -2.488900 -30.462300 39.081100 -0.000007 -0.000012 -0.640714 0.341123 61.970100 40.985400 -0.000006 -0.000013 6.803580 -3.501590 -88.023700 11.754300 -0.000000 0.000003 -0.000091 -0.000949 -16.614000 -2.192510 6.469440 -0.000001 172.630000 9.632550 135.224000 -39.081100 -0.002282 -0.040193 -0.015844 -0.020615 136.943000 -40.985400 0.000008 0.000006 1.456200 -0.205295 -4.920120 -11.754300 -0.000006 -0.000006 -0.017248 -0.151539 -22.759700
0.000000 0.000000 0.000000 0.000000 0.000000 -0.000000 0.582933 82.202800 -22.039200 90.221300 5.183920 -8.922640 15.735700 0.000005 -0.000001 78.868100 81.631400 -79.570900 8.984550 -0.406207 -0.000000 8.646970 -3.220960 -1.160960 16.377300 -0.000001 -0.000001 -3.823500 -3.049830 0.939684 6.456720 -0.000001 -0.000000 -4.084020 -2.684440 4.492860 12.994200 -0.242716 4.980390 -90.377200 1.358840 -74.488100 5.348090 -0.000007 -0.000001 -65.403800 4.043560 -30.155900 24.328600 0.000019 0.000005 -1.040280 -0.232174 -77.492700 22.291600 -0.000001 0.000005 10.110700 5.541080 -8.289370 12.994500 -0.242716 -4.980390 87.956500 9.609070 -77.934000 -5.348130 -0.000001 -0.000004 -64.489800 31.913400 11.797400 -24.328900 0.000322 -0.000009 -1.320580 -2.108190 -32.005900 -22.291500 -0.000108 -0.000004 8.672270 5.500990 -6.576210 -2.192480 -6.469440 -0.000000 175.450000 -1.990810 -18.554300 39.081100 -0.000007 -0.000012 -0.324471 0.247289 52.688700 40.985400 -0.000006 -0.000013 8.273270 -1.329720 -93.463400 11.754300 -0.000000 0.000003 -0.342471 -0.416380 -16.313900 -2.192510 6.469440 -0.000001 -178.625000 9.309080 123.606000 -39.081100 -0.002282 -0.040193 -0.369612 -0.352615 133.387000 -40.985400 0.000008 0.000006 3.488930 -1.768800 -18.909300 -11.754300 -0.000006 -0.000006 -0.016220 -0.145367 -22.506000
0.000000 0.000000 0.000000 0.000000 0.000000 -0.000000 -0.249708 85.304700 -8.605780 86.157300 9.088290 -11.976900 15.735700 0.000005 -0.000001 62.982800 82.521600 -61.506600 8.984550 -0.406207 -0.000000 5.679450 -6.804760 3.289640 16.377300 -0.000001 -0.000001 -2.556760 -2.685330 0.232308 6.456720 -0.000001 -0.000000 -2.977810 -0.125292 3.137140 12.994200 -0.242716 4.980390 -89.661900 -1.231460 -74.645700 5.348090 -0.000007 -0.000001 -61.598100 6.430260 -35.054500 24.328600 0.000019 0.000005 -0.973406 -0.074872 -85.545000 22.291600 -0.000001 0.000005 8.971170 5.520770 -7.392080 12.994500 -0.242716 -4.980390 87.831100 8.056570 -74.875500 -5.348130 -0.000001 -0.000004 -65.902200 35.237100 19.883200 -24.328900 0.000322 -0.000009 -4.078710 -5.339440 -37.453100 -22.291500 -0.000108 -0.000004 6.064070 5.521590 -7.434330 -2.192480 -6.469440 -0.000000 -177.489000 -1.807590 -7.929700 39.081100 -0.000007 -0.000012 0.106412 -0.129164 39.483000 40.985400 -0.000006 -0.000013 9.555620 2.986460 -81.006900 11.754300 -0.000000 0.000003 -0.059133 -0.328958 -30.159000 -2.192510 6.469440 -0.000001 -171.267000 6.930900 118.092000 -39.081100 -0.002282 -0.040193 -0.330226 -0.196575 120.501000 -40.985400 0.000008 0.000006 5.442550 -6.310150 -36.562900 -11.754300 -0.000006 -0.000006 -0.011543 -0.114829 -21.253600
0.000000 0.000000 0.000000 0.000000 0.000000 -0.000000 -0.480654 89.065600 4.627400 84.333400 11.660300 -14.926500 15.735700 0.000005 -0.000001 47.964100 82.876700 -44.978600 8.984550 -0.406207 -0.000000 3.113260 -9.651300 6.238650 16.377300 -0.000001 -0.000001 -1.601640 -2.250050 -0.273606 6.456720 -0.000001 -0.000000 -1.994210 1.513260 1.666200 12.994200 -0.242716 4.980390 -89.210600 -2.765880 -74.065300 5.348090 -0.000007 -0.000001 -58.633700 9.023330 -37.821200 24.328600 0.000019 0.000005 -1.317990 0.004448 -90.210300 22.291600 -0.000001 0.000005 6.335820 5.502620 -6.631940 12.994500 -0.242716 -4.980390 88.308200 5.648430 -73.293900 -5.348130 -0.000001 -0.000004 -67.514500 32.557000 26.281900 -24.328900 0.000322 -0.000009 -2.247310 -2.575890 -41.127800 -22.291500 -0.000108 -0.000004 4.982080 5.534700 -8.004120 -2.192480 -6.469440 -0.000000 -172.416000 -5.363400 -2.348430 39.081100 -0.000007 -0.000012 0.042434 -0.073884 29.869800 40.985400 -0.000006 -0.000013 5.198220 9.603030 -54.846800 11.754300 -0.000000 0.000003 -0.247524 -0.718777 -47.781800 -2.192510 6.469440 -0.000001 -169.177000 4.294270 115.274000 -39.081100 -0.002282 -0.040193 -0.125160 -0.027087 101.866000 -40.985400 0.000008 0.000006 5.980410 -10.244600 -47.030000 -11.754300 -0.000006 -0.000006 -0.013824 -0.130277 -21.886600
0.000000 0.000000 0.000000 0.000000 0.000000 -0.000000 -0.111894 92.048800 17.803100 85.766500 10.962900 -14.625800 15.735700 0.000005 -0.000001 43.859000 82.554300 -40.958700 8.984550 -0.406207 -0.000000 2.880540 -10.851600 6.081850 16.377300 -0.000001 -0.000001 -0.578152 -1.539070 -0.825648 6.456720 -0.000001 -0.000000 -1.523530 2.630460 1.095350 12.994200 -0.242716 4.980390 -89.060500 -3.180370 -73.533900 5.348090 -0.000007 -0.000001 -56.465600 11.120100 -39.271200 24.328600 0.000019 0.000005 1.610040 -0.075540 -92.671200 22.291600 -0.000001 0.000005 4.802940 5.481460 -5.802470 12.994500 -0.242716 -4.980390 88.986800 3.189160 -72.362000 -5.348130 -0.000001 -0.000004 -69.122300 28.479800 30.790900 -24.328900 0.000322 -0.000009 -1.018780 -1.053600 -44.005600 -22.291500 -0.000108 -0.000004 5.182650 5.536340 -8.076490 -2.192480 -6.469440 -0.000000 -167.927000 -17.517600 5.136730 39.081100 -0.000007 -0.000012 0.065174 -0.147683 23.812400 40.985400 -0.000006 -0.000013 -7.384060 12.981800 -29.897200 11.754300 -0.000000 0.000003 -0.002603 -0.036031 -18.042000 -2.192510 6.469440 -0.000001 -171.649000 3.205150 118.988000 -39.081100 -0.002282 -0.040193 0.012894 -0.001763 80.031300 -40.985400 0.000008 0.000006 6.832280 -10.470900 -55.064900 -11.754300 -0.000006 -0.000006 -0.014663 -0.135684 -22.108500
0.000000 0.000000 0.000000 0.000000 0.000000 -0.000000 0.507938 93.168900 30.648100 87.038600 11.900300 -15.124800 15.735700 0.000005 -0.000001 36.986900 82.016600 -34.112700 8.984550 -0.406207 -0.000000 2.225550 -12.884400 6.013190 16.377300 -0.000001 -0.000001 -0.198207 -1.050300 -0.856526 6.456720 -0.000001 -0.000000 -0.632326 3.835180 0.968497 12.994200 -0.242716 4.980390 -88.952900 -3.524850 -73.443900 5.348090 -0.000007 -0.000001 -55.850200 12.371300 -38.192200 24.328600 0.000019 0.000005 2.928920 -0.248436 -94.842700 22.291600 -0.000001 0.000005 3.978940 5.468180 -5.302560 12.994500 -0.242716 -4.980390 89.341900 1.971790 -71.539100 -5.348130 -0.000001 -0.000004 -70.200700 26.722800 34.537100 -24.328900 0.000322 -0.000009 -3.161710 -2.853480 -47.948300 -22.291500 -0.000108 -0.000004 5.761970 5.544300 -8.439300 -2.192480 -6.469440 -0.000000 -166.185000 -16.971000 7.836240 39.081100 -0.000007 -0.000012 0.143009 -0.232515 31.593600 40.985400 -0.000006 -0.000013 -2.869100 7.533010 -33.411500 11.754300 -0.000000 0.000003 -0.005462 -0.065876 -19.257500 -2.192510 6.469440 -0.000001 -172.445000 6.253490 123.721000 -39.081100 -0.002282 -0.040193 0.037297 -0.023422 55.494300 -40.985400 0.000008 0.000006 3.767970 -4.916050 -61.667200 -11.754300 -0.000006 -0.000006 -0.016073 -0.144474 -22.469400
0.000000 0.000000 0.000000 0.000000 0.000000 -0.000000 1.360310 92.893500 43.965600 90.725700 13.467000 -12.984500 15.735700 0.000005 -0.000001 35.394800 80.580000 -33.624800 8.984550 -0.406207 -0.000000 3.496910 -15.406700 4.025740 16.377300 -0.000001 -0.000001 -0.187334 -1.408240 -0.473000 6.456720 -0.000001 -0.000000 -0.632206 4.894860 1.349050 12.994200 -0.242716 4.980390 -88.802500 -4.126140 -73.799900 5.348090 -0.000007 -0.000001 -57.822000 13.515000 -34.726700 24.328600 0.000019 0.000005 1.723560 -0.170289 -95.639900 22.291600 -0.000001 0.000005 5.029170 5.467250 -5.267200 12.994500 -0.242716 -4.980390 89.057100 2.643710 -70.364000 -5.348130 -0.000001 -0.000004 -70.304500 26.050900 35.761500 -24.328900 0.000322 -0.000009 -5.574720 -4.599090 -50.589500 -22.291500 -0.000108 -0.000004 6.525980 5.547580 -8.592500 -2.192480 -6.469440 -0.000000 -168.554000 -10.049800 11.577900 39.081100 -0.000007 -0.000012 0.246956 -0.262805 43.219200 40.985400 -0.000006 -0.000013 0.038428 1.465820 -32.785500 11.754300 -0.000000 0.000003 -0.003967 -0.051105 -18.655600 -2.192510 6.469440 -0.000001 -173.852000 13.614500 132.553000 -39.081100 -0.002282 -0.040193 -0.054083 0.093611 31.507300 -40.985400 0.000008 0.000006 -1.823470 6.204650 -67.617100 -11.754300 -0.000006 -0.000006 -0.017155 -0.150985 -22.736900
